HIERARCHY
ROOT Hips
{
	OFFSET 0.00000 0.00000 0.00000
	CHANNELS 6 Xposition Yposition Zposition Zrotation Yrotation Xrotation 
	JOINT LHipJoint
	{
		OFFSET 0 0 0
		CHANNELS 3 Zrotation Yrotation Xrotation
		JOINT LeftUpLeg
		{
			OFFSET 1.37590 -1.78394 0.89329
			CHANNELS 3 Zrotation Yrotation Xrotation
			JOINT LeftLeg
			{
				OFFSET 2.47928 -6.81178 0.00000
				CHANNELS 3 Zrotation Yrotation Xrotation
				JOINT LeftFoot
				{
					OFFSET 2.63345 -7.23535 0.00000
					CHANNELS 3 Zrotation Yrotation Xrotation
					JOINT LeftToeBase
					{
						OFFSET 0.23938 -0.65768 2.27012
						CHANNELS 3 Zrotation Yrotation Xrotation
						End Site
						{
							OFFSET 0.00000 -0.00000 1.18363
						}
					}
				}
			}
		}
	}
	JOINT RHipJoint
	{
		OFFSET 0 0 0
		CHANNELS 3 Zrotation Yrotation Xrotation
		JOINT RightUpLeg
		{
			OFFSET -1.33617 -1.78394 0.89329
			CHANNELS 3 Zrotation Yrotation Xrotation
			JOINT RightLeg
			{
				OFFSET -2.56922 -7.05888 0.00000
				CHANNELS 3 Zrotation Yrotation Xrotation
				JOINT RightFoot
				{
					OFFSET -2.56568 -7.04915 0.00000
					CHANNELS 3 Zrotation Yrotation Xrotation
					JOINT RightToeBase
					{
						OFFSET -0.27533 -0.75646 2.18105
						CHANNELS 3 Zrotation Yrotation Xrotation
						End Site
						{
							OFFSET -0.00000 -0.00000 1.15233
						}
					}
				}
			}
		}
	}
	JOINT LowerBack
	{
		OFFSET 0 0 0
		CHANNELS 3 Zrotation Yrotation Xrotation
		JOINT Spine
		{
			OFFSET 0.06190 2.15152 -0.00935
			CHANNELS 3 Zrotation Yrotation Xrotation
			JOINT Spine1
			{
				OFFSET 0.06334 2.15332 0.00872
				CHANNELS 3 Zrotation Yrotation Xrotation
				JOINT Neck
				{
					OFFSET 0 0 0
					CHANNELS 3 Zrotation Yrotation Xrotation
					JOINT Neck1
					{
						OFFSET -0.04202 1.66908 0.23524
						CHANNELS 3 Zrotation Yrotation Xrotation
						JOINT Head
						{
							OFFSET 0.07510 1.69357 -0.24440
							CHANNELS 3 Zrotation Yrotation Xrotation
							End Site
							{
								OFFSET 0.02556 1.71719 -0.11000
							}
						}
					}
				}
				JOINT LeftShoulder
				{
					OFFSET 0 0 0
					CHANNELS 3 Zrotation Yrotation Xrotation
					JOINT LeftArm
					{
						OFFSET 3.67168 1.26306 -0.41342
						CHANNELS 3 Zrotation Yrotation Xrotation
						JOINT LeftForeArm
						{
							OFFSET 4.68510 -0.00000 -0.00000
							CHANNELS 3 Zrotation Yrotation Xrotation
							JOINT LeftHand
							{
								OFFSET 3.39626 -0.00000 -0.00000
								CHANNELS 3 Zrotation Yrotation Xrotation
								JOINT LeftFingerBase
								{
									OFFSET 0 0 0
									CHANNELS 3 Zrotation Yrotation Xrotation
									JOINT LeftHandIndex1
									{
										OFFSET 0.48608 -0.00000 -0.00000
										CHANNELS 3 Zrotation Yrotation Xrotation
										End Site
										{
											OFFSET 0.39189 -0.00000 -0.00000
										}
									}
								}
								JOINT LThumb
								{
									OFFSET 0 0 0
									CHANNELS 3 Zrotation Yrotation Xrotation
									End Site
									{
										OFFSET 0.39787 -0.00000 0.39787
									}
								}
							}
						}
					}
				}
				JOINT RightShoulder
				{
					OFFSET 0 0 0
					CHANNELS 3 Zrotation Yrotation Xrotation
					JOINT RightArm
					{
						OFFSET -3.04136 1.42992 -0.76390
						CHANNELS 3 Zrotation Yrotation Xrotation
						JOINT RightForeArm
						{
							OFFSET -5.55576 -0.00000 -0.00000
							CHANNELS 3 Zrotation Yrotation Xrotation
							JOINT RightHand
							{
								OFFSET -3.32774 -0.00000 -0.00000
								CHANNELS 3 Zrotation Yrotation Xrotation
								JOINT RightFingerBase
								{
									OFFSET 0 0 0
									CHANNELS 3 Zrotation Yrotation Xrotation
									JOINT RightHandIndex1
									{
										OFFSET -0.50763 -0.00000 -0.00000
										CHANNELS 3 Zrotation Yrotation Xrotation
										End Site
										{
											OFFSET -0.40926 -0.00000 -0.00000
										}
									}
								}
								JOINT RThumb
								{
									OFFSET 0 0 0
									CHANNELS 3 Zrotation Yrotation Xrotation
									End Site
									{
										OFFSET -0.41551 -0.00000 0.41551
									}
								}
							}
						}
					}
				}
			}
		}
	}
}
MOTION
Frames: 5
Frame Time: .0083333
-10.8338 17.8964 6.4001 -179.0250 -73.8889 183.4060 0.0000 0.0000 0.0000 -23.6331 -3.9020 -11.6183 1.4035 7.4938 21.1869 0.3825 -1.8757 -11.1820 0.1415 2.4246 6.6805 0.0000 0.0000 0.0000 13.9378 8.7277 -33.3676 -9.0384 -16.8323 56.2227 0.5586 -13.1353 -3.9138 -0.1144 -2.1810 6.0061 0.7469 -3.1283 1.4887 4.5649 -4.2437 0.3123 4.3427 -2.1721 -0.2187 -1.8745 1.4524 -17.6842 2.3208 2.0262 13.7819 1.2860 1.0842 7.0754 0.0000 -0.0000 0.0000 -93.5282 -28.6210 84.4355 40.4867 -48.3556 -18.8021 -0.0000 -0.0000 53.6859 45.7058 16.4982 16.2286 -7.1250 0.0000 -0.0000 18.6667 51.9933 3.3093 0.0000 -0.0000 0.0000 79.3919 7.1281 35.5865 -81.8160 59.7454 -52.9185 0.0000 -0.0000 -37.7251 -11.5540 -52.0006 9.1516 7.1250 -0.0000 -0.0000 63.3180 -75.2315 -49.0102
-10.9649 17.8984 6.3784 -179.2620 -74.2345 183.7650 0.0000 0.0000 0.0000 -23.8212 -3.9138 -11.0864 1.3699 7.4074 20.9281 0.3982 -2.2008 -11.3617 0.1401 2.4127 6.6478 0.0000 0.0000 0.0000 13.8543 8.7093 -33.8452 -8.6360 -16.5677 54.8227 0.5514 -13.0282 -4.3807 -0.1146 -2.1822 6.0093 0.6745 -3.1319 1.4553 4.5234 -4.2494 0.3416 4.3369 -2.1745 -0.1674 -1.8398 1.4449 -17.6706 2.3031 2.0103 13.7710 1.2725 1.0768 7.0704 0.0000 -0.0000 0.0000 -93.1857 -27.3943 84.0943 40.5219 -48.3761 -18.8285 -0.0000 -0.0000 53.7514 45.2993 16.0735 15.6304 -7.1250 0.0000 -0.0000 18.1088 51.3508 2.9134 0.0000 -0.0000 0.0000 79.2997 6.5591 36.1188 -81.4290 59.7206 -52.5843 0.0000 -0.0000 -37.6510 -12.2618 -52.4865 9.7813 7.1250 -0.0000 -0.0000 64.7451 -75.6694 -50.7605
-11.0945 17.8993 6.3558 -179.4970 -74.6144 184.1430 0.0000 0.0000 0.0000 -23.9923 -3.9485 -10.5868 1.3391 7.3271 20.6881 0.4131 -2.5430 -11.5307 0.1386 2.3993 6.6106 0.0000 0.0000 0.0000 13.7704 8.6698 -34.3041 -8.2126 -16.2734 53.3249 0.5417 -12.9090 -4.8289 -0.1132 -2.1691 5.9733 0.5988 -3.1336 1.4177 4.4855 -4.2525 0.3639 4.3365 -2.1755 -0.1206 -1.8123 1.4259 -17.6657 2.2972 1.9786 13.7576 1.2625 1.0625 7.0664 0.0000 -0.0000 0.0000 -92.8610 -26.1774 83.6878 40.5460 -48.3901 -18.8464 -0.0000 -0.0000 53.7718 44.8546 15.6274 15.0036 -7.1250 0.0000 -0.0000 17.5182 50.6753 2.5166 0.0000 -0.0000 0.0000 79.1981 6.0569 36.6098 -80.9798 59.6903 -52.1964 0.0000 -0.0000 -37.4982 -12.8400 -52.9230 10.3065 7.1250 -0.0000 -0.0000 66.1546 -76.0285 -52.4257
-11.2236 17.8992 6.3324 -179.7230 -75.0100 184.5200 0.0000 0.0000 0.0000 -24.1451 -3.9858 -10.1018 1.3097 7.2493 20.4560 0.4273 -2.8966 -11.6917 0.1368 2.3834 6.5666 0.0000 0.0000 0.0000 13.6907 8.6215 -34.7244 -7.7720 -15.9489 51.7371 0.5298 -12.7789 -5.2486 -0.1102 -2.1406 5.8942 0.5242 -3.1280 1.3790 4.4495 -4.2456 0.3851 4.3376 -2.1716 -0.0752 -1.7928 1.3952 -17.6665 2.3021 1.9312 13.7403 1.2556 1.0414 7.0621 -0.0000 0.0000 0.0000 -92.5507 -24.9720 83.2164 40.5612 -48.3989 -18.8578 -0.0000 -0.0000 53.7410 44.3779 15.1750 14.3671 -7.1250 0.0000 -0.0000 16.9066 49.9885 2.1329 -0.0000 0.0000 0.0000 79.0865 5.6183 37.0586 -80.4751 59.6544 -51.7607 0.0000 -0.0000 -37.2709 -13.2494 -53.3050 10.6914 7.1250 -0.0000 -0.0000 67.5023 -76.2953 -53.9480
-11.3520 17.8982 6.3082 -179.9450 -75.4196 184.9020 0.0000 0.0000 0.0000 -24.2810 -4.0244 -9.6316 1.2818 7.1745 20.2334 0.4407 -3.2612 -11.8458 0.1346 2.3649 6.5152 0.0000 0.0000 0.0000 13.6131 8.5657 -35.1070 -7.3198 -15.5954 50.0737 0.5163 -12.6413 -5.6382 -0.1059 -2.0983 5.7775 0.4505 -3.1139 1.3408 4.4145 -4.2274 0.4050 4.3393 -2.1620 -0.0319 -1.7808 1.3522 -17.6722 2.3173 1.8676 13.7183 1.2515 1.0131 7.0573 0.0000 -0.0000 0.0000 -92.2534 -23.7791 82.6761 40.5698 -48.4039 -18.8642 -0.0000 -0.0000 53.6605 43.8725 14.7162 13.7244 -7.1250 0.0000 -0.0000 16.2786 49.2923 1.7652 0.0000 -0.0000 0.0000 78.9652 5.2411 37.4627 -79.9212 59.6127 -51.2828 0.0000 -0.0000 -36.9752 -13.4710 -53.6339 10.9178 7.1250 -0.0000 -0.0000 68.7566 -76.4660 -55.2913
